<svg width="48" height="48" viewBox="0 0 48 48" fill="none" xmlns="http://www.w3.org/2000/svg">
<rect width="48" height="48" rx="12" fill="#06231C" fill-opacity="0.1"/>
<path d="M28.0005 22.0002C28.0005 24.2078 26.2082 26.0002 24.0005 26.0002C21.7929 26.0002 20.0005 24.2078 20.0005 22.0002M15.1035 18.0342H32.8975" stroke="#06231C" stroke-width="2" stroke-linecap="round" stroke-linejoin="round"/>
<path d="M15.4 17.467C15.1404 17.8132 15 18.2343 15 18.667V32C15 33.1038 15.8962 34 17 34H31C32.1038 34 33 33.1038 33 32V18.667C33 18.2343 32.8596 17.8132 32.6 17.467L30.6 14.8C30.2223 14.2964 29.6295 14 29 14H19C18.3705 14 17.7777 14.2964 17.4 14.8L15.4 17.467" stroke="#06231C" stroke-width="2" stroke-linecap="round" stroke-linejoin="round"/>
</svg>
