<svg width="48" height="48" viewBox="0 0 48 48" fill="none" xmlns="http://www.w3.org/2000/svg">
<rect width="48" height="48" rx="12" fill="#D4E5C0" fill-opacity="0.5"/>
<path d="M25.997 16C26.732 16 27.4079 16.4032 27.757 17.05L28.243 17.95C28.5921 18.5968 29.268 19 30.003 19H32C33.1038 19 34 19.8962 34 21V30C34 31.1038 33.1038 32 32 32H16C14.8962 32 14 31.1038 14 30V21C14 19.8962 14.8962 19 16 19H17.997C18.7313 19 19.4065 18.5977 19.756 17.952L20.245 17.048C20.5945 16.4023 21.2697 16 22.004 16H25.997" stroke="#06231C" stroke-width="2" stroke-linecap="round" stroke-linejoin="round"/>
<path d="M21 25C21 26.6557 22.3443 28 24 28C25.6557 28 27 26.6557 27 25C27 23.3443 25.6557 22 24 22C22.3443 22 21 23.3443 21 25V25" stroke="#06231C" stroke-width="2" stroke-linecap="round" stroke-linejoin="round"/>
</svg>
