<svg width="48" height="48" viewBox="0 0 48 48" fill="none" xmlns="http://www.w3.org/2000/svg">
<rect width="48" height="48" rx="20" fill="#D4E5C0" fill-opacity="0.3"/>
<path d="M26.5 16H21.5L19 19H16C15.4696 19 14.9609 19.2107 14.5858 19.5858C14.2107 19.9609 14 20.4696 14 21V30C14 30.5304 14.2107 31.0391 14.5858 31.4142C14.9609 31.7893 15.4696 32 16 32H32C32.5304 32 33.0391 31.7893 33.4142 31.4142C33.7893 31.0391 34 30.5304 34 30V21C34 20.4696 33.7893 19.9609 33.4142 19.5858C33.0391 19.2107 32.5304 19 32 19H29L26.5 16Z" stroke="#06231C" stroke-width="2" stroke-linecap="round" stroke-linejoin="round"/>
<path d="M24 28C25.6569 28 27 26.6569 27 25C27 23.3431 25.6569 22 24 22C22.3431 22 21 23.3431 21 25C21 26.6569 22.3431 28 24 28Z" stroke="#06231C" stroke-width="2" stroke-linecap="round" stroke-linejoin="round"/>
</svg>
