<svg width="48" height="48" viewBox="0 0 48 48" fill="none" xmlns="http://www.w3.org/2000/svg">
<rect width="48" height="48" rx="20" fill="#D4E5C0" fill-opacity="0.3"/>
<path d="M33.2998 27.3C33.5235 27.523 33.7011 27.788 33.8222 28.0797C33.9433 28.3714 34.0057 28.6842 34.0057 29C34.0057 29.3159 33.9433 29.6287 33.8222 29.9204C33.7011 30.2121 33.5235 30.4771 33.2998 30.7L30.6998 33.3C30.4768 33.5238 30.2119 33.7013 29.9202 33.8225C29.6284 33.9436 29.3157 34.0059 28.9998 34.0059C28.6839 34.0059 28.3712 33.9436 28.0794 33.8225C27.7877 33.7013 27.5228 33.5238 27.2998 33.3L14.6998 20.7C14.2504 20.2484 13.998 19.6372 13.998 19C13.998 18.3629 14.2504 17.7517 14.6998 17.3L17.2998 14.7C17.7514 14.2506 18.3627 13.9983 18.9998 13.9983C19.637 13.9983 20.2482 14.2506 20.6998 14.7L33.2998 27.3Z" stroke="#06231C" stroke-width="2" stroke-linecap="round" stroke-linejoin="round"/>
<path d="M26.5 24.5L28.5 22.5" stroke="#06231C" stroke-width="2" stroke-linecap="round" stroke-linejoin="round"/>
<path d="M23.5 21.5L25.5 19.5" stroke="#06231C" stroke-width="2" stroke-linecap="round" stroke-linejoin="round"/>
<path d="M20.5 18.5L22.5 16.5" stroke="#06231C" stroke-width="2" stroke-linecap="round" stroke-linejoin="round"/>
<path d="M29.5 27.5L31.5 25.5" stroke="#06231C" stroke-width="2" stroke-linecap="round" stroke-linejoin="round"/>
</svg>
