<svg width="48" height="48" viewBox="0 0 48 48" fill="none" xmlns="http://www.w3.org/2000/svg">
<rect width="48" height="48" rx="20" fill="#06231C"/>
<path d="M15 19V17C15 16.4696 15.2107 15.9609 15.5858 15.5858C15.9609 15.2107 16.4696 15 17 15H19" stroke="#F9FAF7" stroke-width="2" stroke-linecap="round" stroke-linejoin="round"/>
<path d="M29 15H31C31.5304 15 32.0391 15.2107 32.4142 15.5858C32.7893 15.9609 33 16.4696 33 17V19" stroke="#F9FAF7" stroke-width="2" stroke-linecap="round" stroke-linejoin="round"/>
<path d="M33 29V31C33 31.5304 32.7893 32.0391 32.4142 32.4142C32.0391 32.7893 31.5304 33 31 33H29" stroke="#F9FAF7" stroke-width="2" stroke-linecap="round" stroke-linejoin="round"/>
<path d="M19 33H17C16.4696 33 15.9609 32.7893 15.5858 32.4142C15.2107 32.0391 15 31.5304 15 31V29" stroke="#F9FAF7" stroke-width="2" stroke-linecap="round" stroke-linejoin="round"/>
</svg>
