<svg width="64" height="64" viewBox="0 0 64 64" fill="none" xmlns="http://www.w3.org/2000/svg">
<rect width="64" height="64" rx="20" fill="#06231C"/>
<path d="M41.3327 33.1666C41.3327 39 37.2493 41.9166 32.396 43.6083C32.1419 43.6944 31.8658 43.6903 31.6143 43.5966C26.7493 41.9166 22.666 39 22.666 33.1666V25C22.666 24.6905 22.7889 24.3938 23.0077 24.175C23.2265 23.9562 23.5233 23.8333 23.8327 23.8333C26.166 23.8333 29.0827 22.4333 31.1127 20.66C31.3598 20.4488 31.6743 20.3328 31.9993 20.3328C32.3244 20.3328 32.6389 20.4488 32.886 20.66C34.9277 22.445 37.8327 23.8333 40.166 23.8333C40.4754 23.8333 40.7722 23.9562 40.991 24.175C41.2098 24.3938 41.3327 24.6905 41.3327 25V33.1666Z" stroke="#F9FAF7" stroke-width="2.33333" stroke-linecap="round" stroke-linejoin="round"/>
</svg>
